inDegrees=yes
name=ik_S50_A02_T02
DataType=double
version=3
OpenSimVersion=4.3-2021-08-27-4bc7ad9
endheader
time	pelvis_tilt	pelvis_list	pelvis_rotation	pelvis_tx	pelvis_ty	pelvis_tz	hip_flexion_r	hip_adduction_r	hip_rotation_r	knee_angle_r	knee_angle_r_beta	ankle_angle_r	subtalar_angle_r	mtp_angle_r	hip_flexion_l	hip_adduction_l	hip_rotation_l	knee_angle_l	knee_angle_l_beta	ankle_angle_l	subtalar_angle_l	mtp_angle_l	lumbar_extension	lumbar_bending	lumbar_rotation	arm_flex_r	arm_add_r	arm_rot_r	elbow_flex_r	pro_sup_r	wrist_flex_r	wrist_dev_r	arm_flex_l	arm_add_l	arm_rot_l	elbow_flex_l	pro_sup_l	wrist_flex_l	wrist_dev_l
32.13999999999943	-0.4572368033832733	4.538018957758444	84.25837538210473	0	0.9399999999999999	0	12.65504718085282	-4.770306822348442	1.726970345147603	39.68958393168076	0.6927139183544654	0	0	0	4.169296240615574	1.535953918049781	-8.737746703421148	9.768417015229453	0.170491039623591	0	0	0	0	0	0	39.11895013957322	-39.11895013957322	4.860339892599752	83.09282695360761	85.13966037598001	0	0	39.11895013957322	-39.11895013957322	4.860339892599752	83.09282695360761	85.13966037595412	0	0
32.15999999999943	-0.5036601464562493	4.493105677722357	84.18243794060662	0	0.9399999999999999	0	9.352471201809681	-5.245118662557113	0.1656532657120466	38.3358878626866	0.6690874648792129	0	0	0	4.750020647198025	1.425084338484959	-9.203170634640802	9.639832488786588	0.1682468162700453	0	0	0	0	0	0	39.13694127688475	-39.13694127688475	4.86107270017601	83.10283604467637	85.13892756843603	0	0	39.13694127688475	-39.13694127688475	4.86107270017601	83.10283604467637	85.13892756841018	0	0
32.17999999999943	-0.5147319542658347	4.384300808169647	83.99900809262346	0	0.9399999999999999	0	9.474484140482556	-5.260776138852865	0.4371487268298965	39.92569089353654	0.6968347622257295	0	0	0	5.404884846372374	1.211836657335799	-9.71869445537461	9.574537239930118	0.1671071991915908	0	0	0	0	0	0	39.1390106677174	-39.1390106677174	4.861170655582423	83.1041742220669	85.13882961303401	0	0	39.1390106677174	-39.1390106677174	4.861170655582423	83.1041742220669	85.13882961300817	0	0
32.19999999999943	-0.5071342991512909	4.271090359470961	83.80944058698371	0	0.9399999999999999	0	7.88500168568357	-5.648263105877715	-0.4328832568519801	39.38766490108434	0.6874444371961284	0	0	0	6.166946449392699	0.9567851070814772	-9.900136309049509	9.555510902169086	0.1667751269530643	0	0	0	0	0	0	39.14068320817932	-39.14068320817932	4.861250202888023	83.10526093032152	85.13875006573197	0	0	39.14068320817932	-39.14068320817932	4.861250202888023	83.10526093032152	85.13875006570613	0	0
32.21999999999944	-0.4974852713863976	4.152183021543107	83.59449526483094	0	0.9399999999999999	0	6.376725305868711	-6.041150707265118	-1.266848306881507	38.3858754328108	0.6699599125629518	0	0	0	7.063649505796223	0.7699797883146184	-9.74700682398049	9.563618834831775	0.1669166370735582	0	0	0	0	0	0	39.14299447482595	-39.14299447482595	4.861360212658646	83.10676379182031	85.13864005596621	0	0	39.14299447482595	-39.14299447482595	4.861360212658646	83.10676379182031	85.13864005594044	0	0
32.23999999999944	-0.4946805052380025	4.064262401452488	83.40453508215482	0	0.9399999999999999	0	3.496029185633535	-6.600219459211586	-2.462680907110681	35.74350716636907	0.6238418862633288	0	0	0	7.911829797590907	0.6810992657310098	-9.372845068607655	9.469696548222679	0.1652773839312277	0	0	0	0	0	0	39.14528053686923	-39.14528053686923	4.861468949524998	83.10824926210135	85.13853131910476	0	0	39.14528053686923	-39.14528053686923	4.861468949524998	83.10824926210135	85.13853131907901	0	0
32.25999999999944	-0.4983569025195008	4.072846959653126	83.42400050026619	0	0.9399999999999999	0	3.450408994687252	-6.655251416436788	-2.644199724597014	35.74706006038848	0.623903895961942	0	0	0	8.70775511284077	0.6084374833837103	-9.011315377559997	9.453342163680727	0.1649919460738334	0	0	0	0	0	0	39.14621766666717	-39.14621766666717	4.861513398378763	83.10885648218355	85.13848687025299	0	0	39.14621766666717	-39.14621766666717	4.861513398378763	83.10885648218355	85.13848687022724	0	0
32.27999999999945	-0.4762649097892409	3.959913243840402	83.23772708530478	0	0.9399999999999999	0	2.268236152484731	-6.652324621092632	-2.623810462356856	34.21207642818248	0.5971133776157256	0	0	0	9.599315738452782	0.3062296678330397	-9.177661170140153	9.526260963001196	0.1662646192085766	0	0	0	0	0	0	39.14806729875144	-39.14806729875144	4.861600700235037	83.11004911429816	85.13839956840079	0	0	39.14806729875144	-39.14806729875144	4.861600700235037	83.11004911429816	85.13839956837504	0	0
32.29999999999945	-0.4264953829049535	3.659338999823222	82.87571936879245	0	0.9399999999999999	0	1.463159687324552	-6.551165561529344	-2.183345533706936	32.61305514708928	0.5692051914511915	0	0	0	10.74223594415618	-0.03541923015766369	-9.323832118828644	9.461876668330113	0.165140901279992	0	0	0	0	0	0	39.14947201342368	-39.14947201342368	4.861666788843363	83.1109519482396	85.13833347979548	0	0	39.14947201342368	-39.14947201342368	4.861666788843363	83.1109519482396	85.13833347976973	0	0
32.31999999999945	-0.4619701648237066	3.574527109628796	82.8485867830765	0	0.9399999999999999	0	0.3716013696313018	-6.457538302295019	-2.193832930660713	30.47722271390315	0.5319278832212117	0	0	0	11.67339345977396	-0.2902948257481896	-9.398111845142472	9.444362463368501	0.1648352207375427	0	0	0	0	0	0	39.15134200582045	-39.15134200582045	4.861754623998015	83.1121518581343	85.13824564464498	0	0	39.15134200582045	-39.15134200582045	4.861754623998015	83.1121518581343	85.13824564461903	0	0
